<svg xmlns="http://www.w3.org/2000/svg" viewBox="0 0 100 100">
  <defs>
    <linearGradient id="bellGradient" x1="0%" y1="0%" x2="100%" y2="100%">
      <stop offset="0%" style="stop-color:#3b82f6"/>
      <stop offset="100%" style="stop-color:#8b5cf6"/>
    </linearGradient>
    <linearGradient id="heartGradient" x1="0%" y1="0%" x2="100%" y2="100%">
      <stop offset="0%" style="stop-color:#f43f5e"/>
      <stop offset="100%" style="stop-color:#ec4899"/>
    </linearGradient>
  </defs>
  
  <!-- Background circle -->
  <circle cx="50" cy="50" r="48" fill="url(#bellGradient)"/>
  
  <!-- Bell shape -->
  <path d="M50 18c-12 0-22 10-22 22v12c0 4-3 7-6 10h56c-3-3-6-6-6-10V40c0-12-10-22-22-22z" 
        fill="white" opacity="0.95"/>
  
  <!-- Bell bottom -->
  <ellipse cx="50" cy="68" rx="8" ry="6" fill="white" opacity="0.95"/>
  
  <!-- Heart in center -->
  <path d="M50 38c-3-4-9-4-12 0-3 4-3 10 0 14l12 12 12-12c3-4 3-10 0-14-3-4-9-4-12 0z" 
        fill="url(#heartGradient)"/>
  
  <!-- Notification dot -->
  <circle cx="70" cy="28" r="10" fill="#22c55e"/>
  <circle cx="70" cy="28" r="6" fill="#4ade80"/>
</svg>

